<?xml version="1.0" encoding="UTF-8"?>
<svg version="1.1" xmlns="http://www.w3.org/2000/svg" width="1111" height="960">
<path d="M0 0 C62.37 0 124.74 0 189 0 C189 128.04 189 256.08 189 388 C191.64 385.69 194.28 383.38 197 381 C197.66 381 198.32 381 199 381 C199 380.34 199 379.68 199 379 C200.22265625 377.80078125 200.22265625 377.80078125 202.0625 376.3125 C206.57438851 372.48472455 210.7550224 368.36700181 214.9375 364.1875 C215.61240479 363.5169458 216.28730957 362.8463916 216.98266602 362.15551758 C217.61615967 361.52025146 218.24965332 360.88498535 218.90234375 360.23046875 C219.47460693 359.65707764 220.04687012 359.08368652 220.63647461 358.49291992 C222.10062576 357.02622622 222.10062576 357.02622622 223 355 C223.66 355 224.32 355 225 355 C225.33 354.01 225.66 353.02 226 352 C226.66 352 227.32 352 228 352 C228.26425781 351.40703125 228.52851563 350.8140625 228.80078125 350.203125 C230.04370425 347.91970946 231.30401646 346.52573277 233.1875 344.75 C238.012554 340.06538416 242.36179719 335.00827842 246.625 329.8125 C248.96546471 327.04089705 251.40576748 324.53527269 254 322 C255.56567313 320.46155597 257.12791375 318.91961422 258.6875 317.375 C259.83798828 316.24191406 259.83798828 316.24191406 261.01171875 315.0859375 C263.14819769 312.96464641 263.14819769 312.96464641 265 310 C265.66 310 266.32 310 267 310 C267.25394531 309.41734375 267.50789062 308.8346875 267.76953125 308.234375 C269.13320333 305.75811967 270.64225203 304.19479374 272.6875 302.25 C277.55491445 297.50625851 282.0050972 292.49362849 286.25 287.1875 C287.75205845 285.30992694 289.18063472 283.57127002 291 282 C291.66 282 292.32 282 293 282 C293.226875 281.44441406 293.45375 280.88882812 293.6875 280.31640625 C295.37697184 277.33468957 297.53502125 275.3129083 300 272.9375 C302.68210288 270.34506045 304.92789175 268.10816238 307 265 C307.66 265 308.32 265 309 265 C309.33 264.01 309.66 263.02 310 262 C311.4375 260.3125 311.4375 260.3125 313 259 C313.66 259 314.32 259 315 259 C315.26337158 258.40993164 315.52674316 257.81986328 315.7980957 257.21191406 C317.05201652 254.90427185 318.35195261 253.43272606 320.23046875 251.609375 C320.86573486 250.98554932 321.50100098 250.36172363 322.15551758 249.71899414 C322.82607178 249.06922607 323.49662598 248.41945801 324.1875 247.75 C328.95297819 243.076133 333.59672878 238.41979198 337.80078125 233.22265625 C338.19652344 232.81917969 338.59226562 232.41570312 339 232 C339.66 232 340.32 232 341 232 C341.25885986 231.41444336 341.51771973 230.82888672 341.78442383 230.22558594 C343.09221724 227.8311604 344.49736101 226.28906671 346.44921875 224.390625 C347.47499023 223.38128906 347.47499023 223.38128906 348.52148438 222.3515625 C349.23626953 221.65804687 349.95105469 220.96453125 350.6875 220.25 C355.49412907 215.56364803 360.11503744 210.82354018 364.49291992 205.73193359 C366.18244841 203.79033063 367.95845003 201.97207737 369.8125 200.1875 C371.92283375 198.15443247 373.34686094 196.47970859 375 194 C375.66 194 376.32 194 377 194 C377.34611328 193.16082031 377.34611328 193.16082031 377.69921875 192.3046875 C379.3422331 189.39364105 381.40578403 187.44150923 383.8125 185.125 C386.70158246 182.30678969 389.49178268 179.53851734 392 176.375 C392.66 175.59125 393.32 174.8075 394 174 C394.66 174 395.32 174 396 174 C396.36544922 173.14148438 396.36544922 173.14148438 396.73828125 172.265625 C398.22517298 169.59566462 399.98083908 167.86170993 402.1875 165.75 C406.95203216 161.09236439 411.33443322 156.20915902 415.58984375 151.0859375 C417.76659044 148.48270354 419.77187244 146.18133216 422.4375 144.0625 C426.85137957 140.50986523 430.29457222 136.02584148 433.93359375 131.703125 C434.55363281 130.97609375 435.17367187 130.2490625 435.8125 129.5 C436.37582031 128.8296875 436.93914063 128.159375 437.51953125 127.46875 C439 126 439 126 441 126 C441.33 125.01 441.66 124.02 442 123 C442.66 123 443.32 123 444 123 C444.23332031 122.43796875 444.46664062 121.8759375 444.70703125 121.296875 C446.31937076 118.43265858 448.3193562 116.52747979 450.6875 114.25 C454.433075 110.5851486 457.95061784 106.84225222 461.35546875 102.86328125 C463.5439537 100.38369142 465.89544013 98.0937882 468.25390625 95.77734375 C470.06477643 93.93406426 471.75321354 92.02177201 473.4375 90.0625 C476.55278078 86.43975266 479.86970379 83.08494309 483.30078125 79.76171875 C485.19089136 77.90690694 485.19089136 77.90690694 487 75 C487.66 75 488.32 75 489 75 C489.2678833 74.40541992 489.5357666 73.81083984 489.81176758 73.19824219 C491.01210673 70.97760243 492.20702998 69.5756393 494.01171875 67.828125 C494.60533203 67.24546875 495.19894531 66.6628125 495.81054688 66.0625 C496.42994141 65.464375 497.04933594 64.86625 497.6875 64.25 C501.34256739 60.70093349 504.91721998 57.15445829 508.2265625 53.27734375 C513.06956018 47.65764531 518.41080576 42.51949109 523.6875 37.3125 C525.73604633 35.29073623 527.78111319 33.26554143 529.82421875 31.23828125 C530.72229248 30.35180908 531.62036621 29.46533691 532.5456543 28.55200195 C534.86700578 26.13828594 536.93227444 23.63072573 539 21 C540.15767218 19.9454612 541.34560398 18.92310693 542.5625 17.9375 C545.15234956 15.75758939 547.47789435 13.51296125 549.68359375 10.953125 C550.15015381 10.4156665 550.61671387 9.87820801 551.09741211 9.32446289 C552.0107427 8.25851309 552.90963639 7.17996602 553.79125977 6.08764648 C557.78116403 1.45157965 562.28429753 0.31018241 568.1578846 -0.18013763 C570.50361952 -0.25846106 572.84073598 -0.27039857 575.18774414 -0.25878906 C576.07891182 -0.26224555 576.9700795 -0.26570204 577.88825226 -0.26926327 C580.85396217 -0.27796256 583.81944331 -0.27206397 586.78515625 -0.265625 C588.91503469 -0.26770322 591.04491258 -0.27043054 593.17478943 -0.27375793 C598.93760221 -0.27928902 604.70030653 -0.2703491 610.46310425 -0.25734329 C614.06199366 -0.25000103 617.66086995 -0.24631374 621.25976562 -0.24362183 C658.01325533 -0.21061716 694.75394236 0.21041947 731.5 0.9375 C732.61532734 0.95924789 733.73065468 0.98099579 734.87977982 1.00340271 C741.30017103 1.12897314 747.72040188 1.26024339 754.14048958 1.40050697 C756.07494055 1.44264899 758.00941272 1.48383163 759.94390678 1.52394676 C769.66216976 1.72843517 779.32353043 1.99506388 789 3 C785.77929739 9.68694135 780.73414196 14.41268643 775 19 C773.28159277 20.88764431 771.63176618 22.82630754 769.9765625 24.76953125 C767.07712158 28.04142999 763.95262625 31.06981785 760.8203125 34.1171875 C758.93616102 35.87753339 758.93616102 35.87753339 758 38 C757.34 38 756.68 38 756 38 C755.67 38.99 755.34 39.98 755 41 C754.34 41 753.68 41 753 41 C752.34 42.32 751.68 43.64 751 45 C750.34 45 749.68 45 749 45 C748.59817505 45.89187012 748.59817505 45.89187012 748.18823242 46.80175781 C746.98789327 49.02239757 745.79297002 50.4243607 743.98828125 52.171875 C743.10438721 53.0383667 743.10438721 53.0383667 742.20263672 53.92236328 C741.5788916 54.5254834 740.95514648 55.12860352 740.3125 55.75 C734.66675778 61.26990421 734.66675778 61.26990421 729.375 67.125 C723.78359987 73.72912822 717.39972393 79.65317135 711.23828125 85.71875 C708.97982906 87.91029534 708.97982906 87.91029534 707.3125 90.3125 C706.6628125 91.1478125 706.6628125 91.1478125 706 92 C705.34 92 704.68 92 704 92 C703.7628125 92.56388428 703.525625 93.12776855 703.28125 93.70874023 C701.7105919 96.5175486 699.79937163 98.40830921 697.5 100.66015625 C696.613125 101.53607422 695.72625 102.41199219 694.8125 103.31445312 C693.884375 104.22130859 692.95625 105.12816406 692 106.0625 C690.16445214 107.86363134 688.33101857 109.66692064 686.5 111.47265625 C685.6853125 112.26937744 684.870625 113.06609863 684.03125 113.88696289 C681.85452179 116.02675975 681.85452179 116.02675975 680 119 C679.34 119 678.68 119 678 119 C677.67 119.99 677.34 120.98 677 122 C676.34 122 675.68 122 675 122 C674.75000244 122.57669434 674.50000488 123.15338867 674.24243164 123.74755859 C672.82852506 126.31087205 671.21487926 127.99597808 669.12109375 130.0390625 C668.36505859 130.78414062 667.60902344 131.52921875 666.83007812 132.296875 C666.04052734 133.06515625 665.25097656 133.8334375 664.4375 134.625 C662.87152109 136.15663169 661.30761061 137.69038195 659.74609375 139.2265625 C659.05185303 139.90283691 658.3576123 140.57911133 657.64233398 141.27587891 C655.92043505 142.91488551 655.92043505 142.91488551 655 145 C654.34 145 653.68 145 653 145 C652.62524536 145.8647998 652.62524536 145.8647998 652.24291992 146.74707031 C650.82641968 149.31463351 649.21078033 150.99989768 647.11328125 153.046875 C646.33919922 153.81 645.56511719 154.573125 644.76757812 155.359375 C643.95740234 156.14828125 643.14722656 156.9371875 642.3125 157.75 C637.24344106 162.70751486 632.32635735 167.68442471 627.70874023 173.06640625 C624.75504509 176.40877881 621.55988135 179.50485201 618.375 182.625 C613.04823331 187.83923564 613.04823331 187.83923564 608.1640625 193.4609375 C607.09285156 194.71777344 607.09285156 194.71777344 606 196 C605.34 196 604.68 196 604 196 C603.61714844 196.87289673 603.61714844 196.87289673 603.2265625 197.76342773 C601.87583737 200.22640403 600.38452615 201.82791981 598.375 203.78515625 C597.66859375 204.48060547 596.9621875 205.17605469 596.234375 205.89257812 C595.49703125 206.60865234 594.7596875 207.32472656 594 208.0625 C592.53943012 209.48859839 591.08100233 210.91689484 589.625 212.34765625 C588.65433594 213.29137085 588.65433594 213.29137085 587.6640625 214.25415039 C585.8083697 216.10051934 585.8083697 216.10051934 584 219 C583.34 219 582.68 219 582 219 C581.67 219.99 581.34 220.98 581 222 C580.34 222 579.68 222 579 222 C578.63878052 222.85126465 578.63878052 222.85126465 578.27026367 223.71972656 C576.74374592 226.46000636 574.91799033 228.29039291 572.67578125 230.484375 C571.81146484 231.33773437 570.94714844 232.19109375 570.05664062 233.0703125 C569.15107422 233.95460937 568.24550781 234.83890625 567.3125 235.75 C561.88255728 241.07331839 556.55724825 246.38564949 551.61108398 252.1640625 C549.0090598 255.12924235 546.1967343 257.8707713 543.375 260.625 C540.15468326 263.76936587 537.04225283 266.88140305 534.2265625 270.3984375 C533.12441406 271.68621094 533.12441406 271.68621094 532 273 C531.34 273 530.68 273 530 273 C529.67 273.99 529.34 274.98 529 276 C528.34 276 527.68 276 527 276 C526.74476563 276.58193115 526.48953125 277.1638623 526.2265625 277.76342773 C524.87583737 280.22640403 523.38452615 281.82791981 521.375 283.78515625 C520.66859375 284.48060547 519.9621875 285.17605469 519.234375 285.89257812 C518.49703125 286.60865234 517.7596875 287.32472656 517 288.0625 C515.53943012 289.48859839 514.08100233 290.91689484 512.625 292.34765625 C511.65433594 293.29137085 511.65433594 293.29137085 510.6640625 294.25415039 C508.8083697 296.10051934 508.8083697 296.10051934 507 299 C506.34 299 505.68 299 505 299 C504.76821045 299.55848633 504.5364209 300.11697266 504.29760742 300.69238281 C502.65980329 303.60499328 500.62461285 305.58190794 498.23828125 307.921875 C497.76939987 308.38555481 497.30051849 308.84923462 496.81742859 309.32696533 C495.32048402 310.80617025 493.81704251 312.27852701 492.3125 313.75 C484.73351366 321.09863108 484.73351366 321.09863108 477.609375 328.87890625 C472.93614762 334.34860317 467.78618185 339.36274322 462.69311523 344.43725586 C460.93421804 346.19077192 459.18075759 347.9495981 457.42773438 349.70898438 C456.29459147 350.84146675 455.16113855 351.97363902 454.02734375 353.10546875 C453.51155258 353.62328415 452.99576141 354.14109955 452.46434021 354.67460632 C443.07948317 364 443.07948317 364 440 364 C440 364.66 440 365.32 440 366 C430.20768932 374.66716188 418.82867008 381.7205339 408 389 C407.34241699 389.4434375 406.68483398 389.886875 406.00732422 390.34375 C396.79785862 396.54965469 387.49137486 402.60555178 378.171875 408.64453125 C374.78097574 410.84198196 371.39568476 413.04763311 368.015625 415.26171875 C356.12963077 423.03923464 344.11072686 430.57783743 332 438 C331.26668457 438.45020508 330.53336914 438.90041016 329.77783203 439.36425781 C325.40689351 442.04708888 321.02965806 444.71942496 316.64892578 447.38623047 C314.7246795 448.55851323 312.80128934 449.73220165 310.87841797 450.90673828 C296.69217136 459.57167396 282.45276403 468.12128086 268.07421875 476.46484375 C261.44440321 480.31493988 254.84457048 484.21499007 248.25 488.125 C247.11812256 488.79587646 245.98624512 489.46675293 244.82006836 490.15795898 C238.72022294 493.7782356 232.63336969 497.41905508 226.55908203 501.08203125 C220.06970228 504.9947273 213.58866883 508.87504729 206.90234375 512.4453125 C197.29631587 517.59093713 187.74706977 522.86302049 178.44580078 528.54248047 C170.39422632 533.34063375 162.01148998 537.57494273 153.6875 541.875 C147.11861177 545.28173584 140.58631241 548.71983537 134.1875 552.4375 C129.81548164 554.9765938 125.42360035 557.34320819 120.8828125 559.5625 C117.11851847 561.43954635 113.40528125 563.40777694 109.6875 565.375 C100.64333078 570.1555026 91.55914466 574.8570422 82.46749878 579.5463562 C75.20159631 583.29447506 67.95459738 587.07246168 60.75 590.9375 C54.66718424 594.19486584 48.48113264 597.16514507 42.21826172 600.05908203 C37.68391021 602.16733142 33.26303367 604.41600503 28.875 606.8125 C19.80097302 611.74940659 10.45025388 616.10193791 1.11621094 620.52050781 C-4.18186421 623.03588978 -9.46484391 625.58261928 -14.75 628.125 C-18.83258658 630.0848925 -22.91609476 632.04285691 -27 634 C-27.8770459 634.42055664 -28.7540918 634.84111328 -29.65771484 635.27441406 C-38.8898159 639.69562255 -48.16011967 643.99937018 -57.52661133 648.12866211 C-62.0839799 650.13980857 -66.61434802 652.19781795 -71.125 654.3125 C-73.74973753 655.54222767 -76.37471829 656.77143447 -79 658 C-79.79954102 658.37431152 -80.59908203 658.74862305 -81.42285156 659.13427734 C-100.09926622 667.85202894 -119.02224267 675.96630438 -138 684 C-138.69405945 684.29386597 -139.3881189 684.58773193 -140.10321045 684.89050293 C-163.29247369 694.70359512 -186.50361389 704.49350539 -210.0715332 713.36669922 C-214.35469065 714.98120058 -218.60274692 716.63767803 -222.8125 718.4375 C-229.03030948 721.04100075 -235.31806829 723.43489966 -241.625 725.8125 C-243.24692261 726.42726196 -243.24692261 726.42726196 -244.90161133 727.05444336 C-245.91634521 727.43479736 -246.9310791 727.81515137 -247.9765625 728.20703125 C-248.89518066 728.5522583 -249.81379883 728.89748535 -250.76025391 729.25317383 C-253 730 -253 730 -255 730 C-253.68227358 726.94714579 -252.48848849 725.32565899 -249.7265625 723.484375 C-249.07308838 723.04222656 -248.41961426 722.60007812 -247.74633789 722.14453125 C-246.69627563 721.45423828 -246.69627563 721.45423828 -245.625 720.75 C-244.53916626 720.02103516 -244.53916626 720.02103516 -243.43139648 719.27734375 C-241.2926602 717.84379707 -239.14657723 716.42176565 -237 715 C-235.96746094 714.30390625 -234.93492187 713.6078125 -233.87109375 712.890625 C-216.77477294 701.38211419 -199.41433995 690.13859644 -181.6875 679.625 C-174.42764206 675.31898117 -167.3179303 670.78539295 -160.20849609 666.23632812 C-155.26751188 663.07533112 -150.31238917 659.94301491 -145.32006836 656.86376953 C-139.15621942 653.06036816 -133.22742433 649.08737963 -127.41015625 644.76171875 C-118.15964523 638 -118.15964523 638 -115 638 C-115 637.34 -115 636.68 -115 636 C-112.9453125 634.51953125 -112.9453125 634.51953125 -110.125 632.8125 C-105.26515814 629.81989363 -100.60929391 626.64356597 -95.99609375 623.28515625 C-94 622 -94 622 -92 622 C-92 621.34 -92 620.68 -92 620 C-90.19140625 618.6953125 -90.19140625 618.6953125 -87.5625 617.125 C-82.53873857 614.01811553 -77.68941618 610.73437109 -72.875 607.3125 C-72.1540918 606.80041992 -71.43318359 606.28833984 -70.69042969 605.76074219 C-69.20479158 604.70424481 -67.7196068 603.64710969 -66.23486328 602.58935547 C-63.31574137 600.51337954 -60.38774409 598.45014475 -57.45922852 596.38745117 C-54.63314618 594.39636962 -51.80993359 592.40124673 -48.98730469 590.40527344 C-47.70964341 589.50180681 -46.43167401 588.59877568 -45.15332031 587.69628906 C-36.9288138 581.88515126 -28.8289927 575.92332856 -20.7890625 569.859375 C-19.86722168 569.16618164 -19.86722168 569.16618164 -18.92675781 568.45898438 C-17.55000898 567.41647917 -16.18031764 566.36462708 -14.81542969 565.30664062 C-13.74276855 564.48196289 -13.74276855 564.48196289 -12.6484375 563.640625 C-11.99794434 563.13563477 -11.34745117 562.63064453 -10.67724609 562.11035156 C-9 561 -9 561 -7 561 C-7 560.34 -7 559.68 -7 559 C-2.52941176 555 -2.52941176 555 0 555 C0 371.85 0 188.7 0 0 Z " fill="#FFFFFF" transform="translate(255,0)"/>
<path d="M0 0 C1 3 1 3 -0.375 6.5 C-5.78992222 16.6347696 -14.5511755 24.82837699 -22.65234375 32.8125 C-23.64411874 33.7979813 -24.63536482 34.78399512 -25.62611389 35.77050781 C-28.20034235 38.33161072 -30.78012845 40.8870305 -33.36169434 43.44073486 C-37.51774926 47.55316554 -41.66663639 51.67280179 -45.81250191 55.79550171 C-47.25371166 57.22653478 -48.69830068 58.65408897 -50.14329529 60.08129883 C-51.01502884 60.94650146 -51.88676239 61.8117041 -52.78491211 62.703125 C-53.93666176 63.84249512 -53.93666176 63.84249512 -55.11167908 65.00488281 C-57.15911241 67.05549233 -57.15911241 67.05549233 -59 70 C-59.66 70 -60.32 70 -61 70 C-61.33 70.99 -61.66 71.98 -62 73 C-63.65788785 74.34423339 -65.32576317 75.67618483 -67 77 C-68.35386936 78.65002828 -69.68678142 80.3174387 -71 82 C-72.65412504 83.67911462 -74.32355969 85.34316463 -76 87 C-77.11236011 88.11558979 -78.223617 89.2322803 -79.33398438 90.34985352 C-82.66931078 93.70299969 -86.00770277 97.0530756 -89.34716797 100.40209961 C-90.78328478 101.84326514 -92.21850557 103.2853241 -93.65283203 104.72827148 C-95.73493169 106.82252904 -97.82026962 108.91351493 -99.90625 111.00390625 C-100.86114319 111.96654137 -100.86114319 111.96654137 -101.83532715 112.94862366 C-105.08325197 116.19695455 -108.38482383 119.15561128 -112 122 C-112.598125 122.763125 -113.19625 123.52625 -113.8125 124.3125 C-116.21165848 127.26003756 -118.84375087 129.52096961 -121.7265625 131.98046875 C-124.25592427 134.22734166 -126.62433707 136.59144327 -129 139 C-132.51278733 142.5556262 -136.10997019 145.89154606 -139.9140625 149.12890625 C-143.41227707 152.26681783 -146.64033429 155.67440295 -149.8984375 159.05859375 C-152 161 -152 161 -154 161 C-154.33 161.99 -154.66 162.98 -155 164 C-155.66 164 -156.32 164 -157 164 C-157.33 164.99 -157.66 165.98 -158 167 C-158.66 167 -159.32 167 -160 167 C-160.33 167.99 -160.66 168.98 -161 170 C-162.42578125 171.40234375 -162.42578125 171.40234375 -164.3125 172.9375 C-168.69299991 176.63799451 -172.69762951 180.63567441 -176.69848633 184.73608398 C-179.64793651 187.73551655 -182.71274194 190.38382492 -186 193 C-187.69064371 194.64233961 -189.35388476 196.31303226 -191 198 C-193.59981815 200.62932066 -196.20648463 203.25182366 -198.8125 205.875 C-199.48603516 206.55691406 -200.15957031 207.23882812 -200.85351562 207.94140625 C-204.78400887 211.89070568 -208.82198838 215.62313099 -213.04272461 219.25878906 C-216.97358276 222.75571813 -220.58366718 226.58420284 -224.23828125 230.36523438 C-225.12193359 231.26532227 -225.12193359 231.26532227 -226.0234375 232.18359375 C-226.54856934 232.72556396 -227.07370117 233.26753418 -227.61474609 233.82592773 C-229 235 -229 235 -231 235 C-231.2578125 235.59425781 -231.515625 236.18851563 -231.78125 236.80078125 C-233.10696947 239.19302503 -234.40378864 240.44781639 -236.5 242.1875 C-239.67005557 244.8711752 -242.79334609 247.58984591 -245.875 250.375 C-246.71804688 251.13554687 -247.56109375 251.89609375 -248.4296875 252.6796875 C-249.27789063 253.44539062 -250.12609375 254.21109375 -251 255 C-253.48804114 257.24001212 -255.97679718 259.47918354 -258.46875 261.71484375 C-260.24882361 263.32185465 -262.01879297 264.94009407 -263.78125 266.56640625 C-265.12703125 267.80197266 -265.12703125 267.80197266 -266.5 269.0625 C-267.3146875 269.81660156 -268.129375 270.57070313 -268.96875 271.34765625 C-271 273 -271 273 -273 273 C-273.33 273.99 -273.66 274.98 -274 276 C-275.77734375 277.82421875 -275.77734375 277.82421875 -277.9375 279.6875 C-278.64777344 280.31011719 -279.35804688 280.93273437 -280.08984375 281.57421875 C-282 283 -282 283 -284 283 C-284 283.66 -284 284.32 -284 285 C-285.3984375 286.41015625 -285.3984375 286.41015625 -287.375 288.0625 C-291.62258403 291.65893924 -295.71775799 295.39792341 -299.80078125 299.1796875 C-302 301 -302 301 -305 302 C-305 302.66 -305 303.32 -305 304 C-306.51227067 305.3302109 -308.08669024 306.59027591 -309.6875 307.8125 C-313.4114772 310.66479069 -316.7140372 313.6537443 -320 317 C-322.04028718 318.96177588 -324.11058991 320.88962527 -326.1875 322.8125 C-326.72052734 323.31458984 -327.25355469 323.81667969 -327.80273438 324.33398438 C-331.76801658 328 -331.76801658 328 -334 328 C-334.33 328.99 -334.66 329.98 -335 331 C-336.98231463 332.84133105 -339.07342472 334.49610866 -341.1875 336.18359375 C-343.27818264 338.27878217 -343.91658144 339.04385471 -344 342 C-341.92371516 348.49755022 -337.91195036 353.65052819 -333.9375 359.125 C-332.67106124 360.87419651 -331.40917123 362.6266974 -330.15234375 364.3828125 C-329.59538818 365.14996582 -329.03843262 365.91711914 -328.46459961 366.70751953 C-326.95782919 369.06600832 -325.95331581 371.374541 -325 374 C-324.34 374 -323.68 374 -323 374 C-321.625 375.9140625 -321.625 375.9140625 -320 378.625 C-317.15385274 383.23220088 -314.16613826 387.67359795 -311 392.0625 C-310.5673584 392.66296143 -310.1347168 393.26342285 -309.68896484 393.88208008 C-308.84219552 395.05643989 -307.99504044 396.23052167 -307.14746094 397.40429688 C-305.62090392 399.52718553 -304.12054198 401.66767394 -302.625 403.8125 C-300.11421104 407.41265679 -297.5868714 411.00056475 -295.05126953 414.58325195 C-287.67739837 425.00558641 -280.3870124 435.48523833 -273.10400391 445.97119141 C-269.55062669 451.0864383 -265.99404038 456.19945214 -262.4375 461.3125 C-261.79522461 462.23627441 -261.15294922 463.16004883 -260.49121094 464.11181641 C-256.33874883 470.08247145 -252.17327077 476.04387457 -248 482 C-246.83328148 483.66663037 -245.66660898 485.33329295 -244.5 487 C-243.91863281 487.83015625 -243.33726562 488.6603125 -242.73828125 489.515625 C-241.60926923 491.1292242 -240.48158769 492.74375542 -239.35546875 494.359375 C-235.97760869 499.20071072 -232.56332588 504.01405818 -229.125 508.8125 C-225.25825093 514.21379957 -221.45075619 519.65237314 -217.6796875 525.12109375 C-214.1356543 530.25840586 -210.56572446 535.3777336 -207 540.5 C-202.6389186 546.76606618 -198.27914589 553.03294793 -193.9375 559.3125 C-187.81601785 568.16103341 -181.62144113 576.95698982 -175.4140625 585.74536133 C-172.16231565 590.35012565 -168.91816708 594.95999957 -165.68994141 599.58129883 C-161.65519484 605.35596428 -157.6131117 611.12550158 -153.5703125 616.89453125 C-146.17398122 627.45073785 -138.78902062 638.01378358 -131.5 648.64453125 C-126.37095896 656.12316246 -121.20756556 663.57577211 -116 671 C-111.40594061 677.54967637 -106.84149974 684.11770998 -102.31982422 690.7175293 C-98.28363609 696.60260374 -94.2052785 702.45793609 -90.125 708.3125 C-85.08900006 715.53837526 -80.08431679 722.78378999 -75.125 730.0625 C-71.0458803 736.04743792 -66.90525518 741.97912001 -62.6730957 747.85668945 C-58.53519736 753.61541192 -54.53411156 759.46606863 -50.52734375 765.31640625 C-47.95831292 769.06660068 -45.35528604 772.79211676 -42.7421875 776.51171875 C-40.64998962 779.49990271 -38.5744679 782.49950003 -36.5 785.5 C-30.61440534 794.00635935 -24.70358796 802.46807224 -18.50390625 810.75 C-17 813 -17 813 -17 815 C-46.02376922 815.04666989 -75.04753283 815.08196422 -104.07133198 815.10362434 C-106.75124935 815.10566411 -109.43116668 815.10774675 -112.11108398 815.10986328 C-113.11026423 815.11065021 -113.11026423 815.11065021 -114.12962993 815.11145304 C-124.92348044 815.12016197 -135.7173097 815.13593462 -146.5111476 815.15430559 C-157.58189135 815.17299107 -168.65262641 815.1839641 -179.72338551 815.18817699 C-185.94365124 815.19078988 -192.16386873 815.19695328 -198.38411903 815.21146011 C-204.23381575 815.22499275 -210.08344418 815.22923142 -215.93315506 815.22621536 C-218.08466271 815.22676747 -220.23617255 815.23077052 -222.3876667 815.23841095 C-225.31629421 815.24830463 -228.24466101 815.24598934 -231.17329407 815.24050903 C-232.46170849 815.24924756 -232.46170849 815.24924756 -233.77615148 815.25816262 C-237.7005049 815.23819871 -239.65987565 815.22674957 -243 813 C-243 812.34 -243 811.68 -243 811 C-243.99 810.67 -244.98 810.34 -246 810 C-247.578125 808.1015625 -247.578125 808.1015625 -249.25 805.625 C-250.17232422 804.26375 -250.17232422 804.26375 -251.11328125 802.875 C-253.50831122 799.22543052 -255.85554364 795.5480583 -258.18359375 791.85546875 C-263.9682199 782.76178764 -270.1255189 773.93067815 -276.32421875 765.1171875 C-279 761.23026316 -279 761.23026316 -279 759 C-279.66 759 -280.32 759 -281 759 C-282.7265625 756.6640625 -282.7265625 756.6640625 -284.625 753.625 C-285.25664063 752.62726562 -285.88828125 751.62953125 -286.5390625 750.6015625 C-288 748 -288 748 -288 746 C-288.66 746 -289.32 746 -290 746 C-290.66 744.02 -291.32 742.04 -292 740 C-292.66 740 -293.32 740 -294 740 C-295.48046875 737.9453125 -295.48046875 737.9453125 -297.1875 735.125 C-300.03596541 730.52047034 -303.00626835 726.05947407 -306.1328125 721.640625 C-318.53176475 704.10570508 -330.54478754 686.29059501 -342.66601562 668.56347656 C-350.09555588 657.69853784 -357.53833605 646.84290113 -365 636 C-370.8016647 627.56932325 -376.59655434 619.13411385 -382.375 610.6875 C-382.92099854 609.88948975 -383.46699707 609.09147949 -384.02954102 608.26928711 C-386.73960646 604.30750348 -389.44771464 600.34440328 -392.15234375 596.37890625 C-398.68836768 586.80192826 -405.28523418 577.26954792 -411.91723633 567.75878906 C-417.11397794 560.29673744 -422.24410284 552.79128536 -427.35498047 545.27026367 C-431.86001813 538.64961689 -436.41788524 532.0674946 -441 525.5 C-447.576244 516.07327756 -454.07097819 506.59366322 -460.53515625 497.08984375 C-463.59400227 492.59272682 -466.66668677 488.10537002 -469.75 483.625 C-470.18505859 482.99271484 -470.62011719 482.36042969 -471.06835938 481.70898438 C-472.85738845 479.10993014 -474.64742092 476.5115689 -476.43798828 473.91357422 C-487.11286708 458.42349304 -487.11286708 458.42349304 -492 451 C-498.96351404 454.96639719 -505.78243909 459.09307866 -512.5065918 463.45092773 C-522.62512537 470.00615135 -532.86474529 476.36154376 -543.21899414 482.53735352 C-547.36103671 485.00941773 -551.4820236 487.51351009 -555.59301758 490.03686523 C-577.05083349 503.20723967 -598.88400186 515.70681784 -621.0625 527.625 C-621.6505542 527.94158569 -622.2386084 528.25817139 -622.84448242 528.58435059 C-628.98111456 531.88229438 -635.13851477 535.10307256 -641.421875 538.11328125 C-642.41952881 538.59394043 -643.41718262 539.07459961 -644.44506836 539.56982422 C-646.28402598 540.44694985 -648.13070532 541.30816875 -649.98657227 542.14892578 C-655.45701653 544.75308574 -658.89711271 547.62339379 -662.61401367 552.42797852 C-663.3000769 553.20612915 -663.3000769 553.20612915 -664 554 C-664.66 554 -665.32 554 -666 554 C-666 640.13 -666 726.26 -666 815 C-728.37 815 -790.74 815 -855 815 C-855.1613254 747.23437105 -855.1613254 747.23437105 -855.1953125 718.9609375 C-855.20314409 712.4892574 -855.21122605 706.01757769 -855.21972656 699.54589844 C-855.22078156 698.73476955 -855.22183655 697.92364066 -855.22292352 697.08793211 C-855.2403247 683.98980121 -855.27186213 670.89174049 -855.30861118 657.79365121 C-855.34600636 644.35325912 -855.36823284 630.9129038 -855.37635398 617.47246182 C-855.38184472 609.17776622 -855.39919181 600.8832689 -855.43166587 592.58863433 C-855.45279621 586.90206576 -855.45920342 581.21559983 -855.45400551 575.52899484 C-855.45144137 572.24716453 -855.45757548 568.96575442 -855.4768219 565.6839695 C-855.4966706 562.12561301 -855.4919569 558.56811062 -855.48101807 555.00973511 C-855.49266943 553.97276517 -855.5043208 552.93579523 -855.51632524 551.86740196 C-855.46661046 545.9001104 -854.89267392 542.59054165 -851 538 C-850.58234375 537.44828125 -850.1646875 536.8965625 -849.734375 536.328125 C-846.88841628 534.14878724 -843.56519348 533.03365583 -840.25 531.75 C-832.70438694 528.73463417 -825.34240486 525.45468499 -818.01025391 521.95214844 C-815.86141978 520.93436205 -813.70321012 519.93864397 -811.54296875 518.9453125 C-802.23791289 514.64163926 -793.20346964 510.00761526 -784.25317383 505.0078125 C-779.38995046 502.29600248 -774.50204226 499.69551674 -769.5 497.25 C-762.11780911 493.62737344 -754.86873805 489.76582151 -747.625 485.875 C-747.02838562 485.55462769 -746.43177124 485.23425537 -745.81707764 484.9041748 C-739.17416623 481.33517591 -732.53913649 477.75164988 -725.90625 474.1640625 C-723.64599394 472.94241115 -721.38558109 471.72104981 -719.125 470.5 C-717.49353027 469.6186438 -717.49353027 469.6186438 -715.82910156 468.71948242 C-709.34629343 465.22893239 -702.82220237 461.87705474 -696.2109375 458.63671875 C-691.71205621 456.34349337 -687.34319632 453.83748816 -682.95849609 451.3347168 C-678.70040856 448.91761685 -674.39718922 446.65862016 -670 444.5 C-662.85355477 440.9834952 -655.95071571 437.10387726 -649.03662109 433.15722656 C-647.01554734 432.00883414 -644.98782114 430.87329767 -642.95703125 429.7421875 C-635.14226771 425.38612251 -627.42764891 420.90343104 -619.79296875 416.23828125 C-615.93249224 413.92231152 -611.98036614 411.78431633 -608.02270508 409.63989258 C-593.44283196 401.7299493 -578.91677263 393.71972582 -564.76318359 385.06689453 C-561.42710595 383.04824882 -558.05384716 381.09258372 -554.6875 379.125 C-548.17565058 375.30912982 -541.72176525 371.40688349 -535.29150391 367.45532227 C-529.81546105 364.09526151 -524.31030682 360.78649992 -518.79418945 357.49267578 C-507.08304858 350.4980184 -495.49389354 343.34511455 -484 336 C-480.27161897 333.62376586 -476.5420122 331.24945823 -472.8125 328.875 C-471.8755127 328.27792236 -470.93852539 327.68084473 -469.97314453 327.06567383 C-464.72750466 323.72548567 -459.46857276 320.40882412 -454.1875 317.125 C-437.08196315 306.47467681 -420.1819133 295.49773328 -403.31640625 284.47265625 C-398.53121049 281.34470091 -393.73771179 278.22985527 -388.9375 275.125 C-388.24817383 274.67898438 -387.55884766 274.23296875 -386.84863281 273.7734375 C-383.76469775 271.77996283 -380.67769913 269.79161709 -377.58203125 267.81640625 C-358.00612948 255.30894264 -338.83856173 242.1994696 -319.8125 228.875 C-318.54418335 227.98723877 -318.54418335 227.98723877 -317.25024414 227.08154297 C-313.46516736 224.43121427 -309.68285453 221.77729851 -305.91015625 219.109375 C-304.73184148 218.28114949 -303.55346151 217.45301671 -302.375 216.625 C-301.37210938 215.91601562 -300.36921875 215.20703125 -299.3359375 214.4765625 C-297 213 -297 213 -295 213 C-295 212.34 -295 211.68 -295 211 C-293.2265625 209.73046875 -293.2265625 209.73046875 -290.625 208.1875 C-284.44103911 204.37152414 -278.59061667 200.16673489 -272.72314453 195.88354492 C-267.19709152 191.85113599 -261.61613188 187.90590657 -256 184 C-255.1339917 183.39720215 -254.2679834 182.7944043 -253.37573242 182.17333984 C-249.62962257 179.56720203 -245.88213456 176.9630579 -242.13330078 174.36083984 C-237.15225407 170.90029804 -232.18123646 167.42724435 -227.234375 163.91796875 C-226.33058105 163.27867432 -225.42678711 162.63937988 -224.49560547 161.98071289 C-222.78850919 160.77187752 -221.08425285 159.55901843 -219.38330078 158.34155273 C-218.6148584 157.79829346 -217.84641602 157.25503418 -217.0546875 156.6953125 C-216.38937012 156.22109863 -215.72405273 155.74688477 -215.03857422 155.25830078 C-212.77538884 153.86135977 -210.49023237 152.92172696 -208 152 C-208 151.34 -208 150.68 -208 150 C-206.2265625 148.73046875 -206.2265625 148.73046875 -203.625 147.1875 C-197.44103911 143.37152414 -191.59061667 139.16673489 -185.72314453 134.88354492 C-180.19709152 130.85113599 -174.61613188 126.90590657 -169 123 C-168.1339917 122.39720215 -167.2679834 121.7944043 -166.37573242 121.17333984 C-162.62962257 118.56720203 -158.88213456 115.9630579 -155.13330078 113.36083984 C-150.15225407 109.90029804 -145.18123646 106.42724435 -140.234375 102.91796875 C-139.33058105 102.27867432 -138.42678711 101.63937988 -137.49560547 100.98071289 C-135.78850919 99.77187752 -134.08425285 98.55901843 -132.38330078 97.34155273 C-131.23063721 96.52666382 -131.23063721 96.52666382 -130.0546875 95.6953125 C-129.38937012 95.22109863 -128.72405273 94.74688477 -128.03857422 94.25830078 C-125.77538884 92.86135977 -123.49023237 91.92172696 -121 91 C-121 90.34 -121 89.68 -121 89 C-119.2265625 87.73046875 -119.2265625 87.73046875 -116.625 86.1875 C-111.43590577 82.97993728 -106.48937637 79.53365829 -101.5625 75.9375 C-95.92584257 71.82458523 -90.25725097 67.77203435 -84.51757812 63.80395508 C-74.74761696 57.04589331 -65.31980687 49.9455586 -56.00292969 42.578125 C-53.08314958 40.27760591 -50.13756956 38.01146513 -47.1875 35.75 C-46.16011719 34.96109375 -45.13273437 34.1721875 -44.07421875 33.359375 C-43.05972656 32.58078125 -42.04523437 31.8021875 -41 31 C-39.37852741 29.75339725 -37.75742756 28.50631155 -36.13647461 27.2590332 C-35.04766234 26.42134785 -33.95863318 25.58394432 -32.86938477 24.74682617 C-30.18231893 22.68143408 -27.49823154 20.61239745 -24.8203125 18.53515625 C-16.65291896 12.20951557 -8.35350674 6.07737835 0 0 Z " fill="#FFFFFF" transform="translate(1110,145)"/>
</svg>
